<svg width="120" height="120" viewBox="0 0 120 120" fill="none" xmlns="http://www.w3.org/2000/svg">
<path d="M0 16C0 7.16344 7.16344 0 16 0H104C112.837 0 120 7.16344 120 16V104C120 112.837 112.837 120 104 120H16C7.16344 120 0 112.837 0 104V16Z" fill="url(#paint0_linear_2001_2955)"/>
<mask id="mask0_2001_2955" style="mask-type:luminance" maskUnits="userSpaceOnUse" x="22" y="26" width="76" height="68">
<ellipse cx="48.4444" cy="60" rx="26.4444" ry="34" fill="url(#paint1_linear_2001_2955)"/>
<ellipse cx="71.1111" cy="60" rx="26.4444" ry="34" fill="url(#paint2_linear_2001_2955)"/>
</mask>
<g mask="url(#mask0_2001_2955)">
<rect x="20.7407" y="18.4445" width="97.5926" height="88.7778" fill="white"/>
</g>
<defs>
<linearGradient id="paint0_linear_2001_2955" x1="115.5" y1="3.5" x2="6.94394e-06" y2="120" gradientUnits="userSpaceOnUse">
<stop stop-color="#C2DAFF"/>
<stop offset="1" stop-color="#D5B3FF"/>
</linearGradient>
<linearGradient id="paint1_linear_2001_2955" x1="34.2956" y1="32.2963" x2="65.2777" y2="85.4821" gradientUnits="userSpaceOnUse">
<stop stop-color="#62A0FF"/>
<stop offset="1" stop-color="#0048B8"/>
</linearGradient>
<linearGradient id="paint2_linear_2001_2955" x1="54.4015" y1="33.2407" x2="85.4426" y2="87.291" gradientUnits="userSpaceOnUse">
<stop stop-color="#9C4DFF"/>
<stop offset="1" stop-color="#3E008A"/>
</linearGradient>
</defs>
</svg>
