<svg width="22" height="21" viewBox="0 0 22 21" fill="none" xmlns="http://www.w3.org/2000/svg">
<path d="M18.7499 14.4501L17.2499 12.9001C17.9166 12.7167 18.4582 12.3625 18.8749 11.8376C19.2916 11.3126 19.4999 10.7 19.4999 10C19.4999 9.16672 19.2082 8.45838 18.6249 7.87505C18.0416 7.29172 17.3332 7.00005 16.4999 7.00005H12.4999V5.00005H16.4999C17.8832 5.00005 19.0624 5.48755 20.0374 6.46255C21.0124 7.43755 21.4999 8.61672 21.4999 10C21.4999 10.95 21.2541 11.825 20.7624 12.625C20.2707 13.425 19.5999 14.0334 18.7499 14.4501ZM15.3499 11L13.3499 9.00005H15.4999V11H15.3499ZM19.2999 20.6L0.899902 2.20005L2.2999 0.800049L20.6999 19.2001L19.2999 20.6ZM10.4999 15.0001H6.4999C5.11657 15.0001 3.9374 14.5126 2.9624 13.5375C1.9874 12.5625 1.4999 11.3834 1.4999 10C1.4999 8.85005 1.8499 7.82505 2.5499 6.92505C3.2499 6.02505 4.1499 5.43338 5.2499 5.15005L7.0999 7.00005H6.4999C5.66657 7.00005 4.95824 7.29172 4.3749 7.87505C3.79157 8.45838 3.4999 9.16672 3.4999 10C3.4999 10.8334 3.79157 11.5417 4.3749 12.125C4.95824 12.7084 5.66657 13 6.4999 13H10.4999V15.0001ZM7.4999 11V9.00005H9.1249L11.0999 11H7.4999Z" fill="#FEFEFF"/>
</svg>
